# xmcd CD database file
#
# Track frame offsets:
#	150
#	17793
#	33056
#	49298
#	66560
#	102541
#	121832
#	141942
#	160242
#	189605
#
# Disc length: 2723 seconds
#
# Revision: 0
# Processed by: cddbd v1.5.2PL0 Copyright (c) Steve Scherf et al.
# Submitted via: CDex 1.70beta2
#
DISCID=8e0aa10a
DTITLE=Dark PHOENiX - Arrow Revolution
DYEAR=2008
DGENRE=東方アレンジ
TTITLE0=暗闇の風穴
TTITLE1=クリスタライズシルバー
TTITLE2=神さびた古戦場
TTITLE3=おてんば恋娘
TTITLE4=月まで届け、不死の煙
TTITLE5=幽雅に咲かせ、墨染の桜
TTITLE6=フォールオブフォール
TTITLE7=黒い海に紅く
TTITLE8=御柱の墓場
TTITLE9=千年幻想郷
EXTD=YEAR: 2008
EXTT0=
EXTT1=
EXTT2=
EXTT3=
EXTT4=
EXTT5=
EXTT6=
EXTT7=
EXTT8=
EXTT9=
PLAYORDER=
